{"accessors":[{"bufferView":0,"componentType":5126,"count":11526,"max":[58.21454620361328,258.0,58.26704406738281],"min":[-58.21454620361328,238.0,-58.26704406738281],"type":"VEC3"},{"bufferView":1,"componentType":5126,"count":11526,"type":"VEC3"},{"bufferView":2,"componentType":5126,"count":11526,"type":"VEC2"},{"bufferView":3,"componentType":5125,"count":11526,"type":"SCALAR"},{"bufferView":4,"componentType":5126,"count":3084,"max":[56.95000076293945,185.0,56.95000076293945],"min":[-56.95000076293945,3.049999952316284,-56.95000076293945],"type":"VEC3"},{"bufferView":5,"componentType":5126,"count":3084,"type":"VEC3"},{"bufferView":6,"componentType":5125,"count":3084,"type":"SCALAR"},{"bufferView":7,"componentType":5126,"count":22404,"max":[74.68383026123047,250.0,60.0],"min":[-103.73417663574219,0.0,-60.0],"type":"VEC3"},{"bufferView":8,"componentType":5126,"count":22404,"type":"VEC3"},{"bufferView":9,"componentType":5125,"count":22404,"type":"SCALAR"}],"asset":{"generator":"Luxion KeyShot","version":"2.0"},"bufferViews":[{"buffer":0,"byteLength":138312,"byteOffset":0,"byteStride":12},{"buffer":0,"byteLength":138312,"byteOffset":138312,"byteStride":12},{"buffer":0,"byteLength":92208,"byteOffset":276624,"byteStride":8},{"buffer":0,"byteLength":46104,"byteOffset":368832},{"buffer":0,"byteLength":37008,"byteOffset":414936,"byteStride":12},{"buffer":0,"byteLength":37008,"byteOffset":451944,"byteStride":12},{"buffer":0,"byteLength":12336,"byteOffset":488952},{"buffer":0,"byteLength":268848,"byteOffset":501288,"byteStride":12},{"buffer":0,"byteLength":268848,"byteOffset":770136,"byteStride":12},{"buffer":0,"byteLength":89616,"byteOffset":1038984}],"buffers":[{"byteLength":1128600,"uri":"./9-5_Jug_resources/9-5_Jug.bin"}],"cameras":[{"name":"active","perspective":{"aspectRatio":1.0,"yfov":0.35618587815222,"zfar":1738.8316650390625,"znear":1493.737548828125},"type":"perspective"}],"images":[{"uri":"./9-5_Jug_resources/Jug_v1.2_99_normal.png"},{"uri":"./9-5_Jug_resources/Jug_v1.2_99_color.png"},{"uri":"./9-5_Jug_resources/Jug_v1.2_99_roughness_metalness.png"}],"materials":[{"doubleSided":true,"normalTexture":{"index":0,"scale":-1},"pbrMetallicRoughness":{"baseColorTexture":{"index":1},"metallicRoughnessTexture":{"index":2}}},{"alphaMode":"BLEND","doubleSided":true,"pbrMetallicRoughness":{"baseColorFactor":[0.9991999268531799,0.9991999268531799,0.9991999268531799,0.0008000731468200684],"metallicFactor":0.0,"roughnessFactor":0.0}},{"alphaMode":"BLEND","doubleSided":true,"pbrMetallicRoughness":{"baseColorFactor":[1.0,1.0,1.0,0.0],"metallicFactor":0.0,"roughnessFactor":0.0}}],"meshes":[{"name":"Jug v1.2-mesh","primitives":[{"attributes":{"NORMAL":1,"POSITION":0,"TEXCOORD_0":2},"indices":3,"material":0,"mode":4}]},{"name":"Jug v1.2-mesh","primitives":[{"attributes":{"NORMAL":5,"POSITION":4},"indices":6,"material":1,"mode":4}]},{"name":"Jug v1.2-mesh","primitives":[{"attributes":{"NORMAL":8,"POSITION":7},"indices":9,"material":2,"mode":4}]}],"nodes":[{"camera":0,"matrix":[-0.8705539742797539,-1.8569443938076802e-07,-0.49207288017503714,0.0,-0.110055333665818,0.9746680395143233,0.19470475001375104,0.0,0.4796077013015747,0.22365625202655792,-0.8485012054443359,0.0,750.4550170898438,503.484130859375,-1373.76171875,1.0],"name":"active"},{"mesh":0,"name":"Jug v1.2"},{"mesh":1,"name":"Jug v1.2"},{"mesh":2,"name":"Jug v1.2"},{"children":[1,2,3],"name":"Jug v1.2"},{"children":[4],"name":"Jug v1.2"},{"children":[5],"name":"Default"},{"children":[6],"matrix":[0.001,0.0,0.0,0.0,0.0,0.001,0.0,0.0,0.0,0.0,0.001,0.0,0.0,0.0,0.0,1.0],"name":"lux_root"}],"samplers":[{"magFilter":9729,"minFilter":9987,"wrapS":10497,"wrapT":10497},{"magFilter":9729,"minFilter":9987,"wrapS":10497,"wrapT":10497},{"magFilter":9729,"minFilter":9987,"wrapS":10497,"wrapT":10497}],"scenes":[{"nodes":[0,7]}],"textures":[{"sampler":0,"source":0},{"sampler":1,"source":1},{"sampler":2,"source":2}]} 